<?xml version="1.0" encoding="utf-8"?>
<!-- Generator: Adobe Illustrator 25.2.1, SVG Export Plug-In . SVG Version: 6.00 Build 0)  -->
<svg version="1.1" id="Layer_1" xmlns="http://www.w3.org/2000/svg" xmlns:xlink="http://www.w3.org/1999/xlink" x="0px" y="0px"
	 viewBox="0 0 1489.33 558.76" style="enable-background:new 0 0 1489.33 558.76;" xml:space="preserve">
<style type="text/css">
	.st0{fill:#FF0000;}
</style>
<g>
	<path class="st0" d="M1451.23,503.84c14.83,0,25.38-8.56,25.38-21.41c0-11.47-7.95-14.68-15.44-18.04l-10.25-4.43
		c-7.49-3.21-11.77-6.88-11.77-14.83c0-6.73,5.35-11.62,15.6-11.62c9.02,0,13.91,4.28,18.5,13.15l2.29-0.31l-0.92-12.23
		c-6.58-4.13-13.15-5.81-18.81-5.81c-13.76,0-23.4,8.41-23.4,19.57c0,11.01,7.49,15.29,15.14,18.5l8.56,3.67
		c7.65,3.21,13.61,6.73,13.61,14.99c0,8.1-7.03,13.61-17.74,13.61c-11.62,0-14.99-4.74-18.35-15.75l-2.75,0.31l0.61,15.9
		C1438.39,502.16,1445.42,503.84,1451.23,503.84 M1392.21,434.58c9.63,0,17.89,4.43,17.89,20.18c0,0.31,0,2.29-0.15,4.59h-40.98
		C1370.8,443.9,1378.76,434.58,1392.21,434.58 M1413.31,498.49v-4.13c-8.56,2.91-16.97,3.06-19.11,3.06
		c-20.8,0-25.69-14.07-25.69-30.58v-2.45h45.26l2.91-5.35c0.31-2.29,0.31-5.35,0.31-5.5c0-17.89-11.16-25.23-23.4-25.23
		c-17.74,0-32.11,15.44-32.11,40.98c0,20.18,8.72,34.56,29.66,34.56C1398.17,503.84,1405.06,502.32,1413.31,498.49 M1339.46,436.11
		c0-5.66-1.83-7.8-6.73-7.8c-3.06,0-9.63,0.92-13,1.68v3.67c1.07-0.15,5.05-0.46,7.19-0.46c4.13,0,5.35,1.38,5.35,6.12v50.92
		c0,4.28-0.92,6.12-3.52,6.88c-1.83,0.61-5.35,0.92-7.65,1.07v3.82h29.36v-3.82c-4.28-0.31-5.81-0.46-7.49-0.92
		c-2.6-0.76-3.52-2.45-3.52-7.03V436.11z M1328.14,399.1c0,4.28,3.06,6.42,6.42,6.42c3.36,0,6.42-2.14,6.42-6.42
		c0-4.43-3.06-6.42-6.42-6.42C1331.2,392.68,1328.14,394.67,1328.14,399.1 M1281.05,484.58c0,14.37,7.49,18.81,17.74,18.81
		c4.74,0,11.16-1.83,14.68-3.67v-4.13c-3.67,1.07-7.65,1.68-10.4,1.68c-11.32,0-14.83-3.52-14.83-16.06v-45.72h22.94v-5.05h-22.94
		v-20.49h-1.53l-5.66,5.05v15.44h-14.37v5.05h14.37V484.58z M1250.62,436.11c0-5.66-1.83-7.8-6.73-7.8c-3.06,0-9.63,0.92-13,1.68
		v3.67c1.07-0.15,5.05-0.46,7.19-0.46c4.13,0,5.35,1.38,5.35,6.12v50.92c0,4.28-0.92,6.12-3.52,6.88c-1.83,0.61-5.35,0.92-7.65,1.07
		v3.82h29.36v-3.82c-4.28-0.31-5.81-0.46-7.49-0.92c-2.6-0.76-3.52-2.45-3.52-7.03V436.11z M1239.3,399.1
		c0,4.28,3.06,6.42,6.42,6.42c3.36,0,6.42-2.14,6.42-6.42c0-4.43-3.06-6.42-6.42-6.42C1242.36,392.68,1239.3,394.67,1239.3,399.1
		 M1204.13,490.24c0,4.28-0.92,6.12-3.52,6.88c-1.99,0.61-5.66,0.92-8.1,1.07v3.82h30.28v-3.82c-4.59-0.31-6.12-0.46-7.95-0.92
		c-2.6-0.76-3.52-2.45-3.52-7.03v-95.42c0-5.66-1.83-7.8-6.73-7.8c-3.06,0-9.48,0.92-12.69,1.68v3.67c1.07-0.15,4.89-0.46,6.88-0.46
		c4.13,0,5.35,1.38,5.35,6.12V490.24z M1173.7,436.11c0-5.66-1.83-7.8-6.73-7.8c-3.06,0-9.63,0.92-13,1.68v3.67
		c1.07-0.15,5.05-0.46,7.19-0.46c4.13,0,5.35,1.38,5.35,6.12v50.92c0,4.28-0.92,6.12-3.52,6.88c-1.83,0.61-5.35,0.92-7.65,1.07v3.82
		h29.36v-3.82c-4.28-0.31-5.81-0.46-7.49-0.92c-2.6-0.76-3.52-2.45-3.52-7.03V436.11z M1162.39,399.1c0,4.28,3.06,6.42,6.42,6.42
		s6.42-2.14,6.42-6.42c0-4.43-3.06-6.42-6.42-6.42S1162.39,394.67,1162.39,399.1 M1112.69,434.73c14.68,0,22.94,9.94,22.94,29.36
		c0,22.02-11.62,33.79-27.07,33.79c-7.19,0-12.54-1.53-16.67-3.67v-51.38C1098.17,437.18,1105.81,434.73,1112.69,434.73
		 M1084.71,498.8c6.73,3.67,13.91,4.74,21.56,4.74c22.63,0,36.55-17.58,36.55-41.9c0-20.49-10.4-33.33-26.61-33.33
		c-8.87,0-17.13,2.75-24.31,9.94v-43.43c0-5.66-1.83-7.8-6.73-7.8c-3.06,0-9.48,0.92-12.69,1.68v3.67c1.07-0.15,4.89-0.46,6.88-0.46
		c4.13,0,5.35,1.38,5.35,6.12V498.8z M1057.65,436.11c0-5.66-1.83-7.8-6.73-7.8c-3.06,0-9.63,0.92-13,1.68v3.67
		c1.07-0.15,5.05-0.46,7.19-0.46c4.13,0,5.35,1.38,5.35,6.12v50.92c0,4.28-0.92,6.12-3.52,6.88c-1.83,0.61-5.35,0.92-7.65,1.07v3.82
		h29.36v-3.82c-4.28-0.31-5.81-0.46-7.49-0.92c-2.6-0.76-3.52-2.45-3.52-7.03V436.11z M1046.33,399.1c0,4.28,3.06,6.42,6.42,6.42
		s6.42-2.14,6.42-6.42c0-4.43-3.06-6.42-6.42-6.42S1046.33,394.67,1046.33,399.1 M1000.92,503.84c14.83,0,25.38-8.56,25.38-21.41
		c0-11.47-7.95-14.68-15.44-18.04l-10.24-4.43c-7.49-3.21-11.77-6.88-11.77-14.83c0-6.73,5.35-11.62,15.6-11.62
		c9.02,0,13.91,4.28,18.5,13.15l2.29-0.31l-0.92-12.23c-6.58-4.13-13.15-5.81-18.81-5.81c-13.76,0-23.4,8.41-23.4,19.57
		c0,11.01,7.49,15.29,15.14,18.5l8.56,3.67c7.65,3.21,13.61,6.73,13.61,14.99c0,8.1-7.03,13.61-17.74,13.61
		c-11.62,0-14.99-4.74-18.35-15.75l-2.75,0.31l0.61,15.9C988.07,502.16,995.11,503.84,1000.92,503.84 M940.21,503.84
		c14.83,0,25.38-8.56,25.38-21.41c0-11.47-7.95-14.68-15.44-18.04l-10.24-4.43c-7.49-3.21-11.77-6.88-11.77-14.83
		c0-6.73,5.35-11.62,15.6-11.62c9.02,0,13.91,4.28,18.5,13.15l2.29-0.31l-0.92-12.23c-6.58-4.13-13.15-5.81-18.81-5.81
		c-13.76,0-23.4,8.41-23.4,19.57c0,11.01,7.49,15.29,15.14,18.5l8.56,3.67c7.65,3.21,13.61,6.73,13.61,14.99
		c0,8.1-7.03,13.61-17.74,13.61c-11.62,0-14.99-4.74-18.35-15.75l-2.75,0.31l0.61,15.9C927.37,502.16,934.4,503.84,940.21,503.84
		 M898.16,466.84c0,17.43-9.79,30.58-23.24,30.58c-17.89,0-23.85-14.83-23.85-33.18c0-15.75,7.95-29.51,22.94-29.51
		C891.89,434.73,898.16,447.73,898.16,466.84 M905.35,463.93c0-20.95-11.16-35.63-28.9-35.63c-17.89,0-32.57,15.14-32.57,39.6
		c0,20.03,10.4,35.93,28.14,35.93C892.35,503.84,905.35,484.27,905.35,463.93 M800,434.73c14.68,0,22.94,9.94,22.94,29.36
		c0,21.71-12.08,33.95-27.22,33.95c-7.03,0-12.39-1.38-16.51-3.52v-51.68C785.47,437.18,793.12,434.73,800,434.73 M772.01,439.32
		v84.1c0,4.28-0.92,6.12-3.52,6.88c-1.83,0.61-5.35,0.92-7.65,1.07v3.82h30.89v-3.82c-5.2-0.31-7.03-0.46-9.02-0.92
		c-2.6-0.76-3.52-2.45-3.52-7.03v-21.56c4.43,1.38,9.02,1.83,14.07,1.83c22.02,0,36.85-17.58,36.85-42.05
		c0-20.49-10.4-33.33-26.61-33.33c-8.87,0-17.13,2.6-24.31,9.63v-1.83c0-5.66-1.83-7.8-6.73-7.8c-3.06,0-9.48,0.92-12.69,1.68v3.67
		c1.07-0.15,4.89-0.46,6.88-0.46C770.79,433.2,772.01,434.58,772.01,439.32 M658.25,490.24v-46.94c8.72-5.66,14.53-8.41,22.63-8.41
		c12.23,0,15.6,5.96,15.6,16.97v38.38c0,4.28-0.92,6.12-3.52,6.88c-1.83,0.61-5.35,0.92-7.65,1.07v3.82h29.36v-3.82
		c-4.28-0.31-5.81-0.46-7.49-0.92c-2.6-0.76-3.52-2.45-3.52-7.03v-39.14c0-17.89-9.17-22.78-19.57-22.78
		c-10.24,0-18.04,3.98-25.84,9.94v-2.14c0-5.66-1.83-7.8-6.73-7.8c-3.06,0-9.48,0.92-12.69,1.68v3.67c1.07-0.15,4.89-0.46,6.88-0.46
		c4.13,0,5.35,1.38,5.35,6.12v50.92c0,4.28-0.92,6.12-3.52,6.88c-1.83,0.61-5.35,0.92-7.65,1.07v3.82h29.36v-3.82
		c-4.28-0.31-5.81-0.46-7.49-0.92C659.17,496.5,658.25,494.82,658.25,490.24 M571.55,513.63c0-6.42,3.06-12.84,13-18.5
		c1.22,0.15,2.6,0.15,4.13,0.15h12.23c15.44,0,20.8,5.96,20.8,14.99c0,12.23-11.62,20.95-26.3,20.95
		C579.5,531.22,571.55,524.18,571.55,513.63 M595.41,469.44c-11.77,0-19.27-7.19-19.27-19.27c0-10.24,7.34-17.43,17.89-17.43
		c9.48,0,18.81,6.27,18.81,18.65C612.84,462.56,606.42,469.44,595.41,469.44 M595.41,473.72c12.69,0,25.23-8.87,25.23-24.16
		c0-5.05-1.68-9.33-4.28-12.54c5.81-0.46,15.6-4.13,15.6-9.79c0-2.29-1.68-3.52-3.67-3.52c-5.5,0-5.2,8.87-14.99,10.24
		c-4.74-3.82-11.32-5.66-18.04-5.66c-14.99,0-26.15,10.55-26.15,24.16c0,8.56,4.43,14.53,11.01,17.89c-4.43,3.06-9.33,7.65-9.33,13
		c0,4.13,1.99,8.87,9.17,10.86c-8.87,4.89-16.06,11.16-16.06,22.32c0,10.86,9.02,20.03,27.07,20.03c23.55,0,38.38-15.44,38.38-30.58
		c0-12.54-11.01-17.13-27.52-17.13h-11.77c-9.63,0-13-3.21-13-7.8c0-2.75,2.29-5.96,6.88-9.17
		C587.46,473.11,591.28,473.72,595.41,473.72 M545.1,436.11c0-5.66-1.83-7.8-6.73-7.8c-3.06,0-9.63,0.92-13,1.68v3.67
		c1.07-0.15,5.05-0.46,7.19-0.46c4.13,0,5.35,1.38,5.35,6.12v50.92c0,4.28-0.92,6.12-3.52,6.88c-1.83,0.61-5.35,0.92-7.65,1.07v3.82
		h29.36v-3.82c-4.28-0.31-5.81-0.46-7.49-0.92c-2.6-0.76-3.52-2.45-3.52-7.03V436.11z M533.78,399.1c0,4.28,3.06,6.42,6.42,6.42
		c3.36,0,6.42-2.14,6.42-6.42c0-4.43-3.06-6.42-6.42-6.42C536.84,392.68,533.78,394.67,533.78,399.1 M488.37,503.84
		c14.83,0,25.38-8.56,25.38-21.41c0-11.47-7.95-14.68-15.44-18.04l-10.24-4.43c-7.49-3.21-11.77-6.88-11.77-14.83
		c0-6.73,5.35-11.62,15.6-11.62c9.02,0,13.91,4.28,18.5,13.15l2.29-0.31l-0.92-12.23c-6.58-4.13-13.15-5.81-18.81-5.81
		c-13.76,0-23.4,8.41-23.4,19.57c0,11.01,7.49,15.29,15.14,18.5l8.56,3.67c7.65,3.21,13.61,6.73,13.61,14.99
		c0,8.1-7.03,13.61-17.74,13.61c-11.62,0-14.99-4.74-18.35-15.75l-2.75,0.31l0.61,15.9C475.53,502.16,482.56,503.84,488.37,503.84
		 M429.35,434.58c9.63,0,17.89,4.43,17.89,20.18c0,0.31,0,2.29-0.15,4.59h-40.98C407.94,443.9,415.89,434.58,429.35,434.58
		 M450.45,498.49v-4.13c-8.56,2.91-16.97,3.06-19.11,3.06c-20.8,0-25.69-14.07-25.69-30.58v-2.45h45.26l2.91-5.35
		c0.31-2.29,0.31-5.35,0.31-5.5c0-17.89-11.16-25.23-23.4-25.23c-17.74,0-32.11,15.44-32.11,40.98c0,20.18,8.72,34.56,29.66,34.56
		C435.31,503.84,442.19,502.32,450.45,498.49 M325.37,465.77c0-18.65,8.41-31.81,24.62-31.81c8.1,0,15.14,2.6,19.11,4.43v51.38v0.15
		c-7.8,5.81-12.84,7.49-20.03,7.49C333.17,497.42,325.37,485.95,325.37,465.77 M369.1,398.03v32.57c-4.74-1.68-10.7-2.29-16.51-2.29
		c-20.64,0-34.4,15.9-34.4,40.37c0,24.62,12.69,35.02,27.98,35.02c8.87,0,16.06-3.21,23.24-9.33c1.07,5.35,4.13,8.87,10.7,8.87
		c4.28,0,6.88-0.76,10.09-1.99v-3.21c-9.63,0.61-13.91-0.92-13.91-9.02v-94.19c0-5.66-1.83-7.8-6.73-7.8
		c-3.06,0-9.48,0.92-12.69,1.68v3.67c1.07-0.15,4.89-0.46,6.88-0.46C367.88,391.91,369.1,393.29,369.1,398.03 M199.83,503.23h3.67
		l18.65-56.88l19.73,56.88h3.67l18.5-57.34c2.91-9.17,3.98-11.47,10.4-11.93v-3.52h-23.24v3.52c7.95,0,10.09,2.45,7.19,11.62
		l-13.91,44.19l-20.03-59.33h-2.75l-19.11,58.87l-15.44-47.4c-2.14-6.42,0.15-7.95,6.58-7.95v-3.52h-23.09v3.52
		c5.81,0.46,7.03,1.83,9.02,8.1L199.83,503.23z M138.82,434.58c9.63,0,17.89,4.43,17.89,20.18c0,0.31,0,2.29-0.15,4.59h-40.98
		C117.42,443.9,125.37,434.58,138.82,434.58 M159.92,498.49v-4.13c-8.56,2.91-16.97,3.06-19.11,3.06
		c-20.8,0-25.69-14.07-25.69-30.58v-2.45h45.26l2.91-5.35c0.31-2.29,0.31-5.35,0.31-5.5c0-17.89-11.16-25.23-23.4-25.23
		c-17.74,0-32.11,15.44-32.11,40.98c0,20.18,8.72,34.56,29.66,34.56C144.79,503.84,151.67,502.32,159.92,498.49 M41.42,490.24
		v-46.94c8.72-5.66,14.53-8.41,22.63-8.41c12.23,0,15.6,5.96,15.6,16.97v38.38c0,4.28-0.92,6.12-3.52,6.88
		c-1.83,0.61-5.35,0.92-7.65,1.07v3.82h29.36v-3.82c-4.28-0.31-5.81-0.46-7.49-0.92c-2.6-0.76-3.52-2.45-3.52-7.03v-39.14
		c0-17.89-9.17-22.78-19.57-22.78c-10.24,0-18.04,3.98-25.84,9.94v-2.14c0-5.66-1.83-7.8-6.73-7.8c-3.06,0-9.48,0.92-12.69,1.68
		v3.67c1.07-0.15,4.89-0.46,6.88-0.46c4.13,0,5.35,1.38,5.35,6.12v50.92c0,4.28-0.92,6.12-3.52,6.88c-1.83,0.61-5.35,0.92-7.65,1.07
		v3.82h29.36v-3.82c-4.28-0.31-5.81-0.46-7.49-0.92C42.34,496.5,41.42,494.82,41.42,490.24"/>
	<path class="st0" d="M1185.17,330.14c0-6.42,3.06-12.84,13-18.5c1.22,0.15,2.6,0.15,4.13,0.15h12.23c15.44,0,20.8,5.96,20.8,14.99
		c0,12.23-11.62,20.95-26.3,20.95C1193.12,347.72,1185.17,340.69,1185.17,330.14 M1209.02,285.95c-11.77,0-19.27-7.19-19.27-19.27
		c0-10.24,7.34-17.43,17.89-17.43c9.48,0,18.81,6.27,18.81,18.65C1226.45,279.07,1220.03,285.95,1209.02,285.95 M1209.02,290.23
		c12.69,0,25.23-8.87,25.23-24.16c0-5.05-1.68-9.33-4.28-12.54c5.81-0.46,15.6-4.13,15.6-9.79c0-2.29-1.68-3.52-3.67-3.52
		c-5.5,0-5.2,8.87-14.99,10.24c-4.74-3.82-11.32-5.66-18.04-5.66c-14.99,0-26.15,10.55-26.15,24.16c0,8.56,4.43,14.53,11.01,17.89
		c-4.43,3.06-9.33,7.65-9.33,13c0,4.13,1.99,8.87,9.17,10.86c-8.87,4.89-16.06,11.16-16.06,22.32c0,10.86,9.02,20.03,27.07,20.03
		c23.55,0,38.38-15.44,38.38-30.58c0-12.54-11.01-17.13-27.52-17.13h-11.77c-9.63,0-13-3.21-13-7.8c0-2.75,2.29-5.96,6.88-9.17
		C1201.07,289.62,1204.89,290.23,1209.02,290.23 M1114.06,306.74V259.8c8.72-5.66,14.53-8.41,22.63-8.41
		c12.23,0,15.6,5.96,15.6,16.97v38.38c0,4.28-0.92,6.12-3.52,6.88c-1.83,0.61-5.35,0.92-7.65,1.07v3.82h29.36v-3.82
		c-4.28-0.31-5.81-0.46-7.49-0.92c-2.6-0.76-3.52-2.45-3.52-7.03V267.6c0-17.89-9.17-22.78-19.57-22.78
		c-10.24,0-18.04,3.98-25.84,9.94v-2.14c0-5.66-1.83-7.8-6.73-7.8c-3.06,0-9.48,0.92-12.69,1.68v3.67c1.07-0.15,4.89-0.46,6.88-0.46
		c4.13,0,5.35,1.38,5.35,6.12v50.92c0,4.28-0.92,6.12-3.52,6.88c-1.83,0.61-5.35,0.92-7.65,1.07v3.82h29.36v-3.82
		c-4.28-0.31-5.81-0.46-7.49-0.92C1114.98,313.01,1114.06,311.33,1114.06,306.74 M1075.38,252.61c0-5.66-1.83-7.8-6.73-7.8
		c-3.06,0-9.63,0.92-13,1.68v3.67c1.07-0.15,5.05-0.46,7.19-0.46c4.13,0,5.35,1.38,5.35,6.12v50.92c0,4.28-0.92,6.12-3.52,6.88
		c-1.83,0.61-5.35,0.92-7.65,1.07v3.82h29.36v-3.82c-4.28-0.31-5.81-0.46-7.49-0.92c-2.6-0.76-3.52-2.45-3.52-7.03V252.61z
		 M1064.06,215.61c0,4.28,3.06,6.42,6.42,6.42s6.42-2.14,6.42-6.42c0-4.43-3.06-6.42-6.42-6.42S1064.06,211.18,1064.06,215.61
		 M1018.8,306.74v-46.79c6.88-5.66,11.01-8.26,15.14-8.26c6.12,0,6.27,3.06,10.4,3.06c2.45,0,3.98-1.68,3.98-3.98
		c0-3.36-3.36-5.96-8.56-5.96c-8.56,0-15.6,5.5-20.95,10.4v-2.6c0-5.66-1.83-7.8-6.73-7.8c-3.06,0-9.48,0.92-12.69,1.68v3.67
		c1.07-0.15,4.89-0.46,6.88-0.46c4.13,0,5.35,1.38,5.35,6.12v50.92c0,4.28-0.92,6.12-3.52,6.88c-1.83,0.61-5.35,0.92-7.65,1.07v3.82
		h29.36v-3.82c-4.28-0.31-5.81-0.46-7.49-0.92C1019.72,313.01,1018.8,311.33,1018.8,306.74 M964.06,251.08
		c9.63,0,17.89,4.43,17.89,20.18c0,0.31,0,2.29-0.15,4.59h-40.98C942.65,260.41,950.61,251.08,964.06,251.08 M985.16,315v-4.13
		c-8.56,2.91-16.97,3.06-19.11,3.06c-20.8,0-25.69-14.07-25.69-30.58v-2.45h45.26l2.91-5.35c0.31-2.29,0.31-5.35,0.31-5.5
		c0-17.89-11.16-25.23-23.4-25.23c-17.74,0-32.11,15.44-32.11,40.98c0,20.18,8.72,34.56,29.66,34.56
		C970.03,320.35,976.91,318.82,985.16,315 M839.59,318.52h30.43v-3.82c-8.87-0.15-12.08-0.61-12.08-7.95V252h38.53v54.74
		c0,4.28-0.92,6.12-3.52,6.88c-1.83,0.61-5.35,0.92-7.65,1.07v3.82h30.43v-3.82c-4.89-0.15-6.73-0.31-8.56-0.92
		c-2.6-0.92-3.52-2.45-3.52-7.03V252h21.25v-5.05h-21.25v-10.7c0-14.83,3.67-27.07,15.9-27.07c7.8,0,8.1,4.13,12.39,4.13
		c2.29,0,3.67-1.22,3.67-3.52c0-3.67-4.89-6.27-12.69-6.27c-19.42,0-26.45,18.04-26.45,42.2v1.22h-38.53v-10.7
		c0-14.83,3.67-27.07,15.9-27.07c7.8,0,8.1,4.13,12.39,4.13c2.29,0,3.67-1.22,3.67-3.52c0-3.67-4.89-6.27-12.69-6.27
		c-19.42,0-26.45,18.04-26.45,42.2v1.22h-14.22V252h14.22v54.74c0,7.19-3.06,7.49-11.16,7.95V318.52z M819.26,283.35
		c0,17.43-9.79,30.58-23.24,30.58c-17.89,0-23.85-14.83-23.85-33.18c0-15.75,7.95-29.51,22.94-29.51
		C812.99,251.24,819.26,264.23,819.26,283.35 M826.44,280.44c0-20.95-11.16-35.63-28.9-35.63c-17.89,0-32.57,15.14-32.57,39.6
		c0,20.03,10.4,35.93,28.14,35.93C813.45,320.35,826.44,300.78,826.44,280.44 M713.45,313.32c0-5.81-3.21-9.33-8.41-9.33
		c-3.52,0-6.73,2.91-6.73,7.03c0,4.59,3.36,7.49,8.1,7.49c-0.76,7.19-5.5,12.08-11.47,17.43l2.29,2.75
		C703.81,333.81,713.45,325.7,713.45,313.32 M658.25,315.92c-16.36,32.26-33.95,28.29-42.81,28.29c-5.2,0-7.19,1.38-7.19,4.28
		c0.15,3.21,2.75,4.43,8.26,4.43c17.89,0,33.64-11.77,46.94-36.24c9.48-17.74,15.6-40.67,19.11-68.81l-0.92-0.92h-6.27
		c-0.15,2.91-0.46,5.81-0.76,8.56c-6.42,11.62-24.47,37.62-37.77,51.68l4.43-51.07c0.76-8.41-1.68-11.01-5.96-11.01
		c-4.28,0-9.79,2.29-14.53,6.42v4.59c3.67-2.6,9.02-4.74,11.01-4.74c1.99,0,3.06,2.14,2.75,5.96l-4.59,59.79h3.82
		c14.68-13.46,29.51-34.56,39.3-50.77C670.02,285.03,664.82,302.16,658.25,315.92 M593.11,305.06l22.32-89.3
		c2.29-9.33,0.76-12.23-4.89-12.23c-5.2,0-10.55,2.6-15.6,6.73v4.28c4.43-2.75,9.33-4.89,11.93-4.89c2.29,0,2.91,1.68,1.68,6.73
		l-22.63,90.68c-2.29,9.02-0.92,13.3,3.36,13.3c4.43,0,11.77-4.59,18.65-11.77l-1.22-4.28c-5.05,4.43-11.32,8.41-13.61,8.41
		C591.73,312.71,591.73,310.57,593.11,305.06 M557.63,305.06l11.93-47.71c2.29-9.33,0.76-12.23-4.13-12.23
		c-4.43,0-10.55,2.6-16.36,6.73v4.28c4.74-2.75,10.09-4.74,12.54-4.74c1.83,0,2.29,1.53,1.07,6.58l-12.23,49.08
		c-2.29,9.02-0.92,13.3,3.36,13.3c4.43,0,11.77-4.59,18.66-11.77l-1.22-4.28c-5.05,4.43-11.32,8.41-13.61,8.41
		C556.26,312.71,556.26,310.57,557.63,305.06 M566.5,217.29c0,3.21,1.99,5.2,5.2,5.2c3.98,0,7.34-3.36,7.34-7.65
		c0-3.21-1.99-5.2-5.2-5.2C569.87,209.65,566.5,213.01,566.5,217.29 M449.83,257.97l-15.29,60.55h7.03l7.34-30.43
		c14.53-22.78,25.38-35.93,32.88-35.93c5.96,0,6.12,5.2,3.06,16.97l-12.54,49.39h7.03l7.8-31.65
		c14.22-22.02,24.77-34.71,32.11-34.71c5.96,0,5.81,5.2,2.75,16.97l-9.63,37.92c-2.29,9.02-0.92,13.3,3.36,13.3
		c4.43,0,11.77-4.59,18.65-11.77l-1.22-4.28c-5.05,4.43-11.32,8.41-13.61,8.41c-1.38,0-1.38-2.14,0-7.65l9.63-37.92
		c3.82-14.83,0.61-22.02-7.65-22.02c-9.63,0-19.11,9.63-31.96,31.35h-0.46l2.6-9.33c4.13-14.83,0.61-22.02-7.65-22.02
		c-9.79,0-19.57,10.09-32.88,32.88h-0.46l5.81-20.64c2.6-9.17,0.92-12.23-3.98-12.23c-4.43,0-10.55,2.6-16.36,6.73v4.28
		c4.74-2.75,10.09-4.74,12.54-4.74C450.6,251.39,451.05,252.92,449.83,257.97 M365.27,299.86c0-24.01,18.5-48.93,35.17-48.93
		c3.52,0,7.34,1.22,11.16,3.82l-5.81,24.31c-13.91,21.71-26.3,34.71-33.18,34.71C368.03,313.78,365.27,308.88,365.27,299.86
		 M406.1,305.06l14.99-60.25h-2.29l-5.35,3.21c-3.21-1.99-6.73-2.91-10.55-2.91c-22.48,0-44.96,29.21-44.96,55.66
		c0,12.69,5.2,19.57,12.84,19.57c9.63,0,22.48-13,32.88-31.35h0.31l-5.05,18.04c-2.6,9.02-0.92,13.3,3.36,13.3
		c4.43,0,11.77-4.59,18.65-11.77l-1.22-4.28c-5.05,4.43-11.32,8.41-13.61,8.41C404.73,312.71,404.73,310.57,406.1,305.06
		 M327.66,314.69l15.6-62.69h18.35l1.07-5.05h-18.2l1.68-6.88c4.89-19.57,12.69-29.66,21.41-29.66c5.05,0,7.19,1.99,11.01,1.99
		c2.14,0,3.82-1.53,3.82-3.67c0-3.21-3.36-5.2-9.02-5.2c-15.75,0-28.59,14.68-35.02,40.67l-0.61,2.75h-13.61l-1.07,5.05h13.3
		l-16.51,66.82c-4.74,18.96-10.86,27.22-17.43,27.22c-3.98,0-6.27-1.99-8.87-1.99c-2.91,0-4.43,1.99-4.43,4.13
		c0,2.91,3.36,4.74,8.26,4.74C310.53,352.92,321.54,339.31,327.66,314.69 M254.42,250.63c6.42,0,10.09,3.67,10.09,9.02
		c0,6.27-4.89,15.75-36.85,20.18C231.79,264.39,241.73,250.63,254.42,250.63 M261.6,307.81l-1.53-4.28
		c-8.26,7.65-15.6,10.24-21.41,10.24c-11.01,0-13.15-9.48-13.15-18.5c0-3.67,0.46-7.49,1.07-11.16
		c35.32-2.45,45.26-14.99,45.26-25.69c0-9.33-7.8-13.3-15.9-13.3c-22.02,0-37.77,29.66-37.77,51.53c0,13.61,5.96,23.7,18.2,23.7
		C244.17,320.35,253.81,316.38,261.6,307.81 M192.8,252.15c5.35,0,8.1,4.89,8.1,15.44c0,25.54-16.36,46.94-35.02,46.94
		c-3.67,0-7.8-0.76-11.77-2.6l5.96-24.31C173.99,264.85,185.76,252.15,192.8,252.15 M127.81,351.7h37l1.07-5.05h-20.34l6.88-27.98
		c3.82,1.07,7.95,1.68,11.01,1.68c24.01,0,44.5-24.77,44.5-53.67c0-13.61-4.89-21.56-12.84-21.56c-9.63,0-21.41,11.93-32.26,31.35
		h-0.61l5.35-19.11c2.6-9.17,0.92-12.23-3.98-12.23c-4.43,0-10.55,2.6-16.36,6.73v4.28c4.74-2.75,10.09-4.74,12.54-4.74
		c1.83,0,2.29,1.53,1.07,6.58l-22.17,88.69h-9.79L127.81,351.7z M109.16,315.92c-16.36,32.26-33.95,28.29-42.81,28.29
		c-5.2,0-7.19,1.38-7.19,4.28c0.15,3.21,2.75,4.43,8.26,4.43c17.89,0,33.64-11.77,46.94-36.24c9.48-17.74,15.6-40.67,19.11-68.81
		l-0.92-0.92h-6.27c-0.15,2.91-0.46,5.81-0.76,8.56c-6.42,11.62-24.47,37.62-37.77,51.68l4.43-51.07
		c0.76-8.41-1.68-11.01-5.96-11.01s-9.79,2.29-14.53,6.42v4.59c3.67-2.6,9.02-4.74,11.01-4.74c1.99,0,3.06,2.14,2.75,5.96
		l-4.59,59.79h3.82c14.68-13.46,29.51-34.56,39.3-50.77C120.93,285.03,115.73,302.16,109.16,315.92 M27.5,302.16
		c-0.76,2.91-1.22,5.81-1.22,8.26c0,6.73,3.82,9.94,9.33,9.94c5.81,0,13-3.36,21.71-10.7l-2.45-3.52c-7.49,5.2-13.46,7.8-17.13,7.8
		c-2.75,0-3.98-1.53-3.98-5.35c0-2.75,0.61-5.96,1.68-10.55L46.92,252h20.34l1.07-5.05H48.15l5.05-20.49H50.9l-5.05,3.52
		l-4.28,16.97H27.05L25.98,252H40.2L27.5,302.16z"/>
	<path class="st0" d="M1361.17,116.37c0-24.01,18.5-48.93,35.17-48.93c3.52,0,7.34,1.22,11.16,3.82l-5.81,24.31
		c-13.91,21.71-26.3,34.71-33.18,34.71C1363.92,130.29,1361.17,125.39,1361.17,116.37 M1402,121.57l14.99-60.25h-2.29l-5.35,3.21
		c-3.21-1.99-6.73-2.91-10.55-2.91c-22.48,0-44.96,29.21-44.96,55.66c0,12.69,5.2,19.57,12.84,19.57c9.63,0,22.48-13,32.88-31.35
		h0.31l-5.05,18.04c-2.6,9.02-0.92,13.3,3.36,13.3c4.43,0,11.77-4.59,18.66-11.77l-1.22-4.28c-5.05,4.43-11.32,8.41-13.61,8.41
		C1400.62,129.22,1400.62,127.07,1402,121.57 M1343.89,61.63c-2.29,0-4.28,1.83-4.28,6.42c0,21.87-9.79,40.52-27.52,58.72
		l-3.21-54.13c-0.46-8.41-1.53-11.01-5.81-11.01c-4.28,0-9.79,2.29-14.53,6.42v4.59c3.67-2.6,9.02-4.74,11.01-4.74
		s2.45,2.14,2.75,5.96l4.13,62.39h2.91c22.32-19.57,38.38-47.55,38.38-68.2C1347.71,63.46,1346.18,61.63,1343.89,61.63
		 M1222.02,116.37c0-24.01,18.5-48.93,35.17-48.93c3.52,0,7.34,1.22,11.16,3.82l-5.81,24.31c-13.91,21.71-26.3,34.71-33.18,34.71
		C1224.77,130.29,1222.02,125.39,1222.02,116.37 M1262.85,121.57l14.99-60.25h-2.29l-5.35,3.21c-3.21-1.99-6.73-2.91-10.55-2.91
		c-22.48,0-44.96,29.21-44.96,55.66c0,12.69,5.2,19.57,12.84,19.57c9.63,0,22.48-13,32.88-31.35h0.31l-5.05,18.04
		c-2.6,9.02-0.92,13.3,3.36,13.3c4.43,0,11.77-4.59,18.66-11.77l-1.22-4.28c-5.05,4.43-11.32,8.41-13.61,8.41
		C1261.47,129.22,1261.47,127.07,1262.85,121.57 M1142.51,128.91c-2.29,1.53-6.27,1.83-12.23,1.99l-1.07,4.13h67.43l7.19-25.38
		l-3.67-0.46c-5.96,15.9-9.33,20.34-24.01,20.34h-24.47l21.87-87.77c0.76-3.21,0.92-5.05,3.21-6.58c2.45-1.53,6.27-1.83,12.39-1.99
		l0.92-4.13h-34.4l-0.92,4.13c7.49,0.46,9.94,0.61,11.32,2.14c1.07,1.22,0.76,3.21,0,6.42l-20.18,80.58
		C1145.11,125.55,1144.8,127.38,1142.51,128.91 M1061.01,67.59c9.63,0,17.89,4.43,17.89,20.18c0,0.31,0,2.29-0.15,4.59h-40.98
		C1039.6,76.92,1047.56,67.59,1061.01,67.59 M1082.11,131.51v-4.13c-8.56,2.91-16.97,3.06-19.11,3.06
		c-20.8,0-25.69-14.07-25.69-30.58v-2.45h45.26l2.91-5.35c0.31-2.29,0.31-5.35,0.31-5.5c0-17.89-11.16-25.23-23.4-25.23
		c-17.74,0-32.11,15.44-32.11,40.98c0,20.18,8.72,34.56,29.66,34.56C1066.97,136.86,1073.86,135.33,1082.11,131.51 M956.42,123.25
		c0,4.28-0.92,6.12-3.52,6.88c-1.83,0.61-5.35,0.92-7.65,1.07v3.82h29.36v-3.82c-4.28-0.31-5.81-0.46-7.49-0.92
		c-2.6-0.76-3.52-2.45-3.52-7.03V76c8.87-5.35,14.53-8.1,22.63-8.1c12.23,0,15.6,5.96,15.6,16.97v38.38c0,4.28-0.92,6.12-3.52,6.88
		c-1.83,0.61-5.35,0.92-7.65,1.07v3.82h29.36v-3.82c-4.28-0.31-5.81-0.46-7.49-0.92c-2.6-0.76-3.52-2.45-3.52-7.03V84.11
		c0-17.89-9.17-22.78-19.57-22.78c-10.24,0-18.04,4.74-25.84,11.16V27.84c0-5.66-1.83-7.8-6.73-7.8c-3.06,0-9.48,0.92-12.69,1.68
		v3.67c1.07-0.15,4.89-0.46,6.88-0.46c4.13,0,5.35,1.38,5.35,6.12V123.25z M907.18,117.59c0,14.37,7.49,18.81,17.74,18.81
		c4.74,0,11.16-1.83,14.68-3.67v-4.13c-3.67,1.07-7.65,1.68-10.4,1.68c-11.32,0-14.83-3.52-14.83-16.06V68.51h22.94v-5.05h-22.94
		V42.97h-1.53l-5.66,5.05v15.44h-14.37v5.05h14.37V117.59z M807.64,68.51h14.22v54.74c0,4.28-0.92,6.12-3.52,6.88
		c-1.83,0.61-5.35,0.92-7.65,1.07v3.82h30.43v-3.82c-4.89-0.15-6.73-0.31-8.56-0.92c-2.6-0.92-3.52-2.45-3.52-7.03V68.51h21.25
		v-5.05h-21.25v-10.7c0-14.83,3.67-27.07,15.9-27.07c7.8,0,8.1,4.13,12.39,4.13c2.29,0,3.67-1.22,3.67-3.52
		c0-3.67-4.89-6.27-12.69-6.27c-19.42,0-26.45,18.04-26.45,42.2v1.22h-14.22V68.51z M790.36,99.86c0,17.43-9.79,30.58-23.24,30.58
		c-17.89,0-23.85-14.83-23.85-33.18c0-15.75,7.95-29.51,22.94-29.51C784.09,67.75,790.36,80.74,790.36,99.86 M797.55,96.95
		c0-20.95-11.16-35.63-28.9-35.63c-17.89,0-32.57,15.14-32.57,39.6c0,20.03,10.4,35.93,28.14,35.93
		C784.55,136.86,797.55,117.29,797.55,96.95 M657.33,136.86c14.83,0,25.38-8.56,25.38-21.41c0-11.47-7.95-14.68-15.44-18.04
		l-10.24-4.43c-7.49-3.21-11.77-6.88-11.77-14.83c0-6.73,5.35-11.62,15.6-11.62c9.02,0,13.91,4.28,18.5,13.15l2.29-0.31l-0.92-12.23
		c-6.58-4.13-13.15-5.81-18.81-5.81c-13.76,0-23.4,8.41-23.4,19.57c0,11.01,7.49,15.29,15.14,18.5l8.56,3.67
		c7.65,3.21,13.61,6.73,13.61,14.99c0,8.1-7.03,13.61-17.74,13.61c-11.62,0-14.99-4.74-18.35-15.75l-2.75,0.31l0.61,15.9
		C644.49,135.18,651.52,136.86,657.33,136.86 M598.31,67.59c9.63,0,17.89,4.43,17.89,20.18c0,0.31,0,2.29-0.15,4.59h-40.98
		C576.9,76.92,584.86,67.59,598.31,67.59 M619.41,131.51v-4.13c-8.56,2.91-16.97,3.06-19.11,3.06c-20.8,0-25.69-14.07-25.69-30.58
		v-2.45h45.26l2.91-5.35c0.31-2.29,0.31-5.35,0.31-5.5c0-17.89-11.16-25.23-23.4-25.23c-17.74,0-32.11,15.44-32.11,40.98
		c0,20.18,8.72,34.56,29.66,34.56C604.28,136.86,611.16,135.33,619.41,131.51 M538.07,123.25c0,4.28-0.92,6.12-3.52,6.88
		c-1.99,0.61-5.66,0.92-8.1,1.07v3.82h30.28v-3.82c-4.59-0.31-6.12-0.46-7.95-0.92c-2.6-0.76-3.52-2.45-3.52-7.03V27.84
		c0-5.66-1.83-7.8-6.73-7.8c-3.06,0-9.48,0.92-12.69,1.68v3.67c1.07-0.15,4.89-0.46,6.88-0.46c4.13,0,5.35,1.38,5.35,6.12V123.25z
		 M457.33,169.58c14.37,0,24.01-16.82,29.97-31.65l24.16-60.25c2.75-7.03,4.74-9.33,10.86-10.7v-3.52h-23.09v3.52
		c7.49,0,9.63,2.91,6.73,10.09l-18.04,45.87l-19.57-48.78c-1.99-5.05,0-7.19,7.49-7.19v-3.52h-24.62v3.52
		c5.35,1.22,7.19,2.29,9.17,7.03l23.85,57.95l-4.43,10.09c-4.59,10.4-10.24,18.65-22.02,18.65c-3.82,0-6.27,1.83-6.27,4.43
		C451.52,167.6,453.66,169.58,457.33,169.58 M415.28,117.59c0,14.37,7.49,18.81,17.74,18.81c4.74,0,11.16-1.83,14.68-3.67v-4.13
		c-3.67,1.07-7.65,1.68-10.4,1.68c-11.32,0-14.83-3.52-14.83-16.06V68.51h22.94v-5.05h-22.94V42.97h-1.53l-5.66,5.05v15.44h-14.37
		v5.05h14.37V117.59z M367.11,136.86c14.83,0,25.38-8.56,25.38-21.41c0-11.47-7.95-14.68-15.44-18.04l-10.24-4.43
		c-7.49-3.21-11.77-6.88-11.77-14.83c0-6.73,5.35-11.62,15.6-11.62c9.02,0,13.91,4.28,18.5,13.15l2.29-0.31l-0.92-12.23
		c-6.58-4.13-13.15-5.81-18.81-5.81c-13.76,0-23.4,8.41-23.4,19.57c0,11.01,7.49,15.29,15.14,18.5l8.56,3.67
		c7.65,3.21,13.61,6.73,13.61,14.99c0,8.1-7.03,13.61-17.74,13.61c-11.62,0-14.99-4.74-18.35-15.75l-2.75,0.31l0.61,15.9
		C354.27,135.18,361.3,136.86,367.11,136.86 M227.82,136.25h3.67l18.65-56.88l19.73,56.88h3.67l18.5-57.34
		c2.91-9.17,3.98-11.47,10.4-11.93v-3.52h-23.24v3.52c7.95,0,10.09,2.45,7.19,11.62l-13.91,44.19l-20.03-59.33h-2.75l-19.11,58.87
		l-15.44-47.4c-2.14-6.42,0.15-7.95,6.58-7.95v-3.52h-23.09v3.52c5.81,0.46,7.03,1.83,9.02,8.1L227.82,136.25z M166.8,67.59
		c9.63,0,17.89,4.43,17.89,20.18c0,0.31,0,2.29-0.15,4.59h-40.98C145.4,76.92,153.35,67.59,166.8,67.59 M187.9,131.51v-4.13
		c-8.56,2.91-16.97,3.06-19.11,3.06c-20.8,0-25.69-14.07-25.69-30.58v-2.45h45.26l2.91-5.35c0.31-2.29,0.31-5.35,0.31-5.5
		c0-17.89-11.16-25.23-23.4-25.23c-17.74,0-32.11,15.44-32.11,40.98c0,20.18,8.72,34.56,29.66,34.56
		C172.77,136.86,179.65,135.33,187.9,131.51 M24.6,33.19c12.08,0.61,13.46,2.6,13.46,8.56v77.53c0,4.59-0.15,7.03-2.29,9.02
		c-1.99,1.99-3.98,2.29-10.7,2.6v4.13h31.96v-4.13c-5.2-0.15-8.56-0.76-10.55-2.45c-2.75-2.29-2.45-4.89-2.45-9.48V41.29
		l65.75,94.35h5.05V45.12c0-4.59-0.31-7.19,2.45-9.48c1.99-1.68,5.35-2.29,10.55-2.45v-4.13H95.86v4.13
		c6.73,0.31,8.72,0.61,10.7,2.6c2.14,1.99,2.29,4.43,2.29,9.02v76.3L44.63,29.06H24.6V33.19z"/>
</g>
</svg>
